<svg xmlns="http://www.w3.org/2000/svg" width="139" height="139" fill="none" viewBox="0 0 139 139" data-letter="logo" style="translate: none; rotate: none; scale: none; transform: rotate(450deg);">
<path fill="currentColor" stroke="currentColor" d="M39.624 16.961 55.179 1.313h45.401l15.665 15.648H39.624Zm-1.701 78.251L22.258 79.67V34.317l15.665-15.65v76.545Zm84.593-55.359 15.665 15.54v45.364l-15.665 15.641V39.853Zm-78.33-1.7 15.556-15.65h45.401l15.664 15.65h-76.62ZM99.29 122.66l-15.556 15.649h-45.4L22.669 122.66h76.62Zm1.702-78.253 15.666 15.541v45.354l-15.666 15.65V44.407ZM16.4 99.764.734 84.214V38.86L16.4 23.21v76.554Zm78.327 1.701-15.555 15.639H33.771l-15.664-15.639h76.62Z"></path>
</svg>