<svg xmlns="http://www.w3.org/2000/svg" width="174" height="210" fill="none" viewBox="0 0 174 210" data-letter="d" style="translate: none; rotate: none; scale: none; transform: translate(0px, 0px);">
<path fill="currentColor" stroke="currentColor" d="M.5 208.944V1.109h33.434v.068h52.2c.522 0 1.16-.012 1.903-.025 7.896-.145 27.673-.506 46.198 10.615 20.218 12.139 39.063 38.043 39.063 93.289 0 55.245-18.845 81.149-39.063 93.288-18.525 11.122-38.302 10.76-46.198 10.615-.743-.013-1.38-.025-1.902-.025l-51.7.01H.5Zm33.434-28.998v.5h52.2l.545.001c6.25.008 19.035.026 30.381-9.04 11.701-9.351 21.749-28.253 21.749-66.351 0-38.099-10.048-57.001-21.749-66.351-11.346-9.067-24.13-9.049-30.381-9.04H33.935v150.281Z"></path>
</svg>