<svg xmlns="http://www.w3.org/2000/svg" width="170" height="218" fill="none" viewBox="0 0 170 218" data-letter="s" style="translate: none; rotate: none; scale: none; transform: translate(0px, 0px);">
<path fill="currentColor" stroke="currentColor" d="m82.618.135.023.5.003-.001h.01l.043-.002.171-.006A78.836 78.836 0 0 1 86.12.61c2.223.035 5.4.163 9.215.538 7.633.749 17.803 2.48 27.977 6.405 10.173 3.925 20.328 10.036 27.959 19.533 7.553 9.398 12.66 22.145 12.836 39.452h-33.413c-.079-8.102-2.087-17.3-8.989-24.526-7.049-7.378-19.115-12.61-39.164-12.61-16.95 0-26.955 4.543-32.716 10.655-5.755 6.106-7.193 13.692-7.193 19.614 0 6.658 3.677 12.227 11.295 16.994 7.6 4.756 19.19 8.759 35.184 12.305 19.932 4.422 40.031 9.247 55.152 18.736 7.551 4.738 13.845 10.631 18.254 18.205 4.407 7.572 6.946 16.853 6.946 28.393 0 15.82-4.54 27.655-11.328 36.519-6.792 8.871-15.858 14.797-24.95 18.755-9.091 3.958-18.189 5.939-25.019 6.93a101.98 101.98 0 0 1-8.247.867 68.712 68.712 0 0 1-2.91.121l-.153.002h-.049v.5-.5c-20.536 0-44.467-2.892-63.249-13.54-18.639-10.568-32.246-28.795-32.392-59.586h33.418l-.002.163c-.059 3.457-.234 13.77 6.656 23.514 7.432 10.511 22.98 20.236 55.307 20.236 12.329 0 22.165-3.165 28.93-8.644 6.774-5.486 10.428-13.262 10.428-22.379 0-13.356-8.259-21.762-20.284-27.631-11.986-5.851-27.836-9.247-43.293-12.559l-.074-.016c-12.727-2.721-28.678-7.56-41.437-16.421C18.074 91.788 8.54 78.95 8.54 60.184c0-16.364 4.63-28.236 11.543-36.854C27 14.704 36.235 9.3 45.499 5.932 54.764 2.562 64.037 1.237 71 .755c3.48-.241 6.38-.272 8.407-.241a70.572 70.572 0 0 1 2.966.105l.156.01.04.003h.008l.003.001.039-.498Zm0 0 .023.5h-.031l-.031-.002.039-.498Z"></path>
</svg>